<svg width="200" height="211" viewBox="0 0 200 211" fill="none" xmlns="http://www.w3.org/2000/svg">
<path d="M168.017 91.358C167.779 96.1868 164.116 102.149 158.212 107.879V183.386C158.205 185.33 157.439 186.978 156.145 188.266C154.845 189.528 153.158 190.275 151.175 190.287H28.122C26.1521 190.275 24.4586 189.528 23.1581 188.266C21.8639 186.978 21.1045 185.33 21.0979 183.386V62.7209C21.1045 60.7831 21.8639 59.1283 23.1581 57.8407C24.4586 56.5786 26.1521 55.8319 28.122 55.8192H93.476C98.7617 48.8787 104.923 41.7709 111.902 35.2557C111.934 35.217 111.96 35.1782 111.992 35.1399H28.122C20.3962 35.1333 13.295 38.243 8.2409 43.2135C3.16122 48.184 -0.00658244 55.1372 1.02704e-05 62.7213V183.386C-0.00658244 190.97 3.16122 197.937 8.2409 202.894C13.2946 207.864 20.3962 210.967 28.122 210.967H151.175C158.914 210.967 166.016 207.864 171.069 202.893C176.136 197.936 179.31 190.969 179.304 183.385V83.8382C179.304 83.8382 179.252 83.7739 179.168 83.7092C175.969 86.4522 172.241 89.0658 168.017 91.358Z" fill="url(#paint0_linear_125_6)"/>
<path d="M199.738 0C199.738 0 193.274 9.6575 151.053 23.9435C108 38.5134 81.5007 97.7835 81.5007 97.7835C75.1206 109.926 49.9018 160.376 49.9018 160.376C42.9551 173.406 55.6832 181.107 63.1515 167.651C77.4635 141.82 86.7023 118.218 108.464 117.548C140.21 116.57 161.92 88.8471 155.089 90.1347C146.101 94.0491 126.285 90.431 137.957 88.6283C165.976 86.3814 183.243 65.3218 177.616 63.8929C167.682 67.717 158.417 64.0861 156.602 62.9913C206.054 56.9779 199.738 0 199.738 0Z" fill="url(#paint1_linear_125_6)"/>
<defs>
<linearGradient id="paint0_linear_125_6" x1="180.2" y1="36.8068" x2="15.5014" y2="218.435" gradientUnits="userSpaceOnUse">
<stop stop-color="#075DA8"/>
<stop offset="1" stop-color="#0D6EB5"/>
</linearGradient>
<linearGradient id="paint1_linear_125_6" x1="200.76" y1="1.65619" x2="36.6314" y2="156.19" gradientUnits="userSpaceOnUse">
<stop stop-color="#075DA8"/>
<stop offset="1" stop-color="#0D6EB5"/>
</linearGradient>
</defs>
</svg>
